#!OML:ASF H:\Pregnant\Project 1\Capture day 1\Session 1\femalepreg.ASF
:FULLY-SPECIFIED
:DEGREES
1780
root 1.62627 15.2256 40.519 203.295 51.0856 540.481
lowerback -11.5112 6.85632 12.5469
upperback -5.10633 8.23693 -4.10454
thorax 3.26202 4.22344 -10.1546
lowerneck 4.01705 23.1716 24.2287
upperneck 6.28345 34.212 -19.3308
head 8.70609 16.9407 -5.30496
rclavicle -8.46823e-014 4.55217e-014
rhumerus -27.7109 -4.24631 -82.3629
rradius 29.2291
rwrist -8.13875
rhand -18.9285 -14.8103
rfingers 7.12502
rthumb 7.37417 -44.6618
lclavicle -8.46823e-014 4.55217e-014
lhumerus -37.0969 -14.9273 82.1789
lradius 29.3436
lwrist 34.0695
lhand -11.7288 -5.24409
lfingers 7.12502
lthumb 14.3183 24.2422
rfemur -34.2411 9.47273 22.784
rtibia 34.7353
rfoot -18.1854 -20.9108
rtoes -13.0671
lfemur -48.8437 -4.47139 -30.1946
ltibia 26.3936
lfoot -4.43942 19.6311
ltoes -7.39244
1781
root 1.68866 15.2156 40.4955 203.299 50.5362 540.537
lowerback -11.6301 6.88141 12.4263
upperback -5.08112 8.27071 -4.15921
thorax 3.35681 4.24855 -10.1246
lowerneck 4.08476 23.2713 24.319
upperneck 6.16039 34.3718 -19.4333
head 8.72231 17.018 -5.30638
rclavicle -3.34207e-014 -3.79679e-014
rhumerus -27.8443 -4.27917 -82.5517
rradius 29.0384
rwrist -7.72965
rhand -18.6871 -14.7519
rfingers 7.12502
rthumb 7.60714 -44.5951
lclavicle -3.34207e-014 -3.79679e-014
lhumerus -36.9049 -15.5023 82.2233
lradius 29.2877
lwrist 35.118
lhand -12.9745 -5.5182
lfingers 7.12502
lthumb 13.1177 24.0492
rfemur -33.7991 9.27566 23.087
rtibia 34.6427
rfoot -18.4087 -21.2585
rtoes -13.0329
lfemur -48.5245 -4.37002 -30.3072
ltibia 26.0877
lfoot -3.81971 19.4591
ltoes -6.6152
1782
root 1.75261 15.2034 40.4707 203.323 49.9842 540.636
lowerback -11.7626 6.90734 12.305
upperback -5.05771 8.30437 -4.20322
thorax 3.4551 4.27355 -10.0812
lowerneck 4.16643 23.3561 24.4201
upperneck 6.03982 34.5141 -19.5309
head 8.73469 17.0884 -5.31351
rclavicle 6.63444e-014 -1.17283e-014
rhumerus -27.996 -4.35125 -82.7274
rradius 28.8415
rwrist -7.28757
rhand -18.4218 -14.7207
rfingers 7.12502
rthumb 7.86322 -44.5545
lclavicle 6.63444e-014 -1.17283e-014
lhumerus -36.7189 -16.0453 82.2504
lradius 29.2558
lwrist 36.2689
lhand -14.119 -5.65541
lfingers 7.12502
lthumb 12.0144 23.9798
rfemur -33.3325 9.07156 23.4288
rtibia 34.5464
rfoot -18.6463 -21.5888
rtoes -13.0021
lfemur -48.2025 -4.26868 -30.3568
ltibia 25.9055
lfoot -3.36165 19.0195
ltoes -5.95263
1783
root 1.81804 15.1895 40.4446 203.367 49.4306 540.778
lowerback -11.902 6.93343 12.1712
upperback -5.04206 8.3393 -4.22638
thorax 3.5442 4.29811 -10.007
lowerneck 4.25387 23.4245 24.5095
upperneck 5.93079 34.6356 -19.6145
head 8.7411 17.1499 -5.32229
rclavicle 8.97264e-014 3.17062e-014
rhumerus -28.1829 -4.43356 -82.8764
rradius 28.6553
rwrist -6.83841
rhand -18.1306 -14.7117
rfingers 7.12502
rthumb 8.14431 -44.5347
lclavicle 8.97264e-014 3.17062e-014
lhumerus -36.5514 -16.5202 82.2678
lradius 29.263
lwrist 37.4607
lhand -15.1643 -5.66143
lfingers 7.12502
lthumb 11.0063 24.03
rfemur -32.839 8.85687 23.8106
rtibia 34.4358
rfoot -18.9017 -21.8787
rtoes -12.9178
lfemur -47.8785 -4.18443 -30.3306
ltibia 25.8355
lfoot -3.0954 18.3719
ltoes -5.49577
1784
root 1.88496 15.1741 40.4169 203.428 48.8779 540.958
lowerback -12.0486 6.9607 12.0223
upperback -5.03203 8.37697 -4.23096
thorax 3.62687 4.32318 -9.90245
lowerneck 4.32993 23.4835 24.5786
upperneck 5.84416 34.7396 -19.6656
head 8.74306 17.2028 -5.324
rclavicle 9.4547e-015 5.6753e-014
rhumerus -28.3961 -4.55237 -82.9928
rradius 28.4691
rwrist -6.36385
rhand -17.8129 -14.7331
rfingers 7.12502
rthumb 8.45088 -44.544
lclavicle 9.4547e-015 5.6753e-014
lhumerus -36.3932 -16.9052 82.2625
lradius 29.3088
lwrist 38.6398
lhand -16.0942 -5.55113
lfingers 7.12502
lthumb 10.1092 24.186
rfemur -32.3103 8.62545 24.2288
rtibia 34.2961
rfoot -19.1649 -22.1239
rtoes -12.8116
lfemur -47.5569 -4.10909 -30.2438
ltibia 25.8657
lfoot -3.01502 17.6
ltoes -5.14192
1785
root 1.95332 15.1586 40.3873 203.502 48.3249 541.171
lowerback -12.2136 6.9909 11.8725
upperback -5.01492 8.416 -4.22921
thorax 3.72622 4.34974 -9.78776
lowerneck 4.38216 23.5415 24.6359
upperneck 5.76034 34.8314 -19.6957
head 8.74066 17.2485 -5.31958
rclavicle -9.46091e-015 2.83268e-015
rhumerus -28.6122 -4.70699 -83.1001
rradius 28.2891
rwrist -5.87811
rhand -17.4814 -14.7867
rfingers 7.12502
rthumb 8.7708 -44.5845
lclavicle -9.46091e-015 2.83268e-015
lhumerus -36.211 -17.1927 82.2019
lradius 29.3823
lwrist 39.7164
lhand -16.8672 -5.28039
lfingers 7.12502
lthumb 9.36344 24.4916
rfemur -31.7359 8.38298 24.6779
rtibia 34.1063
rfoot -19.4194 -22.34
rtoes -12.6975
lfemur -47.252 -4.01436 -30.1304
ltibia 25.9856
lfoot -3.06453 16.7992
ltoes -4.86741
1786
root 2.02297 15.1441 40.3561 203.584 47.7732 541.407
lowerback -12.3819 7.01895 11.7027
upperback -5.00743 8.45501 -4.20986
thorax 3.81136 4.37487 -9.64246
lowerneck 4.4363 23.5891 24.6653
upperneck 5.68461 34.9073 -19.705
head 8.72834 17.2874 -5.3128
rclavicle -2.54258e-014 1.39149e-014
rhumerus -28.8599 -4.8788 -83.1767
rradius 28.1179
rwrist -5.38969
rhand -17.1351 -14.8753
rfingers 7.12502
rthumb 9.10495 -44.6588
lclavicle -2.54258e-014 1.39149e-014
lhumerus -36.0329 -17.3652 82.1161
lradius 29.4671
lwrist 40.6428
lhand -17.5025 -4.92293
lfingers 7.12502
lthumb 8.75048 24.8757
rfemur -31.1129 8.14695 25.1441
rtibia 33.85
rfoot -19.6497 -22.5617
rtoes -12.6292
lfemur -46.9837 -3.87133 -30.0277
ltibia 26.1846
lfoot -3.16066 16.0398
ltoes -4.63964
1787
root 2.09396 15.1318 40.3233 203.663 47.2324 541.658
lowerback -12.5533 7.04322 11.5086
upperback -5.00127 8.49144 -4.17361
thorax 3.89001 4.39785 -9.46524
lowerneck 4.49806 23.6273 24.6719
upperneck 5.60463 34.9722 -19.7153
head 8.70758 17.322 -5.30942
rclavicle -3.46909e-014 -2.01596e-014
rhumerus -29.1299 -5.03745 -83.2338
rradius 27.9651
rwrist -4.92352
rhand -16.7261 -14.9026
rfingers 7.12502
rthumb 9.49959 -44.6685
lclavicle -3.46909e-014 -2.01596e-014
lhumerus -35.8535 -17.4269 82.0111
lradius 29.5507
lwrist 41.3995
lhand -18.0132 -4.51392
lfingers 7.12502
lthumb 8.25761 25.3047
rfemur -30.433 7.93149 25.6168
rtibia 33.5175
rfoot -19.8458 -22.7788
rtoes -12.5985
lfemur -46.7591 -3.65262 -29.9622
ltibia 26.4553
lfoot -3.24351 15.3378
ltoes -4.27312
1788
root 2.16564 15.1217 40.2893 203.732 46.6905 541.9
lowerback -12.7291 7.05799 11.2792
upperback -4.99794 8.51952 -4.1239
thorax 3.95887 4.4157 -9.25514
lowerneck 4.55994 23.6511 24.6624
upperneck 5.5182 35.0218 -19.7458
head 8.6833 17.3497 -5.31515
rclavicle 3.15322e-014 1.70209e-014
rhumerus -29.4366 -5.11455 -83.2924
rradius 27.8713
rwrist -4.5644
rhand -16.3012 -14.9053
rfingers 7.12502
rthumb 9.90955 -44.652
lclavicle 3.15322e-014 1.70209e-014
lhumerus -35.6579 -17.3913 81.8924
lradius 29.6099
lwrist 41.9655
lhand -18.4032 -4.0928
lfingers 7.12502
lthumb 7.8812 25.7403
rfemur -29.715 7.7447 26.0787
rtibia 33.1181
rfoot -19.9978 -23.0106
rtoes -12.6057
lfemur -46.5919 -3.37473 -29.9456
ltibia 26.7895
lfoot -3.27389 14.6555
ltoes -3.70406
1789
root 2.23767 15.1137 40.2546 203.775 46.147 542.112
lowerback -12.8944 7.06321 11.0118
upperback -5.00247 8.54249 -4.0745
thorax 4.00704 4.42958 -9.02708
lowerneck 4.61668 23.6584 24.6489
upperneck 5.43913 35.052 -19.784
head 8.65944 17.3681 -5.32726
rclavicle 2.22577e-014 1.79403e-014
rhumerus -29.7804 -5.16881 -83.3511
rradius 27.8195
rwrist -4.27052
rhand -15.8547 -14.8502
rfingers 7.12502
rthumb 10.3403 -44.5759
lclavicle 2.22577e-014 1.79403e-014
lhumerus -35.4587 -17.3238 81.7763
lradius 29.6478
lwrist 42.4215
lhand -18.7203 -3.71845
lfingers 7.12502
lthumb 7.57512 26.1259
rfemur -28.9721 7.59299 26.5135
rtibia 32.6755
rfoot -20.1156 -23.2598
rtoes -12.6086
lfemur -46.471 -3.07433 -29.9674
ltibia 27.1809
lfoot -3.26793 13.9692
ltoes -2.8764
1790
root 2.30956 15.1069 40.2194 203.773 45.5926 542.269
lowerback -13.0534 7.05422 10.6969
upperback -5.00223 8.55398 -4.03153
thorax 4.04887 4.43736 -8.78274
lowerneck 4.63068 23.6579 24.6233
upperneck 5.3798 35.0659 -19.8208
head 8.64327 17.3757 -5.33652
rclavicle 3.29983e-014 -3.03147e-014
rhumerus -30.1349 -5.21957 -83.4108
rradius 27.8012
rwrist -4.03965
rhand -15.4253 -14.7693
rfingers 7.12502
rthumb 10.7546 -44.474
lclavicle 3.29983e-014 -3.03147e-014
lhumerus -35.235 -17.2466 81.666
lradius 29.6633
lwrist 42.828
lhand -18.9753 -3.43635
lfingers 7.12502
lthumb 7.32895 26.4167
rfemur -28.2278 7.46534 26.9073
rtibia 32.2304
rfoot -20.2084 -23.5424
rtoes -12.6242
lfemur -46.3759 -2.81416 -30.0057
ltibia 27.6179
lfoot -3.28599 13.2675
ltoes -1.84986
1791
root 2.38115 15.1 40.1845 203.712 45.0235 542.356
lowerback -13.1913 7.02914 10.3265
upperback -4.99916 8.55457 -4.00012
thorax 4.07434 4.43882 -8.52491
lowerneck 4.60208 23.6468 24.59
upperneck 5.34665 35.0593 -19.849
head 8.63521 17.3705 -5.34225
rclavicle -5.45415e-014 -5.66536e-015
rhumerus -30.4676 -5.41464 -83.4288
rradius 27.7349
rwrist -3.74032
rhand -15.041 -14.6562
rfingers 7.12502
rthumb 11.1252 -44.3413
lclavicle -5.45415e-014 -5.66536e-015
lhumerus -34.9967 -17.17 81.561
lradius 29.6757
lwrist 43.2136
lhand -19.16 -3.21994
lfingers 7.12502
lthumb 7.15068 26.6393
rfemur -27.5004 7.35949 27.2541
rtibia 31.825
rfoot -20.3038 -23.8574
rtoes -12.5738
lfemur -46.282 -2.64539 -30.0335
ltibia 28.089
lfoot -3.37646 12.5805
ltoes -0.853512
1792
root 2.45234 15.092 40.1498 203.571 44.4246 542.356
lowerback -13.3041 6.98339 9.89819
upperback -4.9837 8.53827 -3.98803
thorax 4.09127 4.43153 -8.26182
lowerneck 4.50678 23.6312 24.5492
upperneck 5.34643 35.0322 -19.8556
head 8.63844 17.3506 -5.3375
rclavicle 1.67402e-013 2.06736e-014
rhumerus -30.7573 -5.79545 -83.4
rradius 27.5991
rwrist -3.34817
rhand -14.7323 -14.5395
rfingers 7.12502
rthumb 11.4229 -44.2083
lclavicle 1.67402e-013 2.06736e-014
lhumerus -34.7294 -17.1138 81.4542
lradius 29.6937
lwrist 43.6288
lhand -19.2748 -3.09657
lfingers 7.12502
lthumb 7.03988 26.7664
rfemur -26.8012 7.25565 27.5472
rtibia 31.4972
rfoot -20.4193 -24.2251
rtoes -12.4927
lfemur -46.1622 -2.59636 -30.0529
ltibia 28.5765
lfoot -3.54303 11.9319
ltoes -0.0541719
1793
root 2.52324 15.0822 40.1155 203.349 43.7914 542.27
lowerback -13.3903 6.91513 9.42085
upperback -4.95883 8.50203 -3.99589
thorax 4.09659 4.41388 -8.00009
lowerneck 4.3896 23.6052 24.5043
upperneck 5.35348 34.9832 -19.8499
head 8.63975 17.319 -5.33238
rclavicle 2.65874e-015 -1.90833e-014
rhumerus -31.0263 -6.31524 -83.3369
rradius 27.4169
rwrist -2.91096
rhand -14.5195 -14.4521
rfingers 7.12502
rthumb 11.6282 -44.1095
lclavicle 2.65874e-015 -1.90833e-014
lhumerus -34.449 -17.0733 81.3441
lradius 29.7198
lwrist 44.0477
lhand -19.3057 -3.02328
lfingers 7.12502
lthumb 7.01005 26.8406
rfemur -26.1375 7.13631 27.7921
rtibia 31.2694
rfoot -20.5746 -24.6363
rtoes -12.3714
lfemur -46.0042 -2.65094 -30.0787
ltibia 29.0636
lfoot -3.76863 11.3429
ltoes 0.488537
